<mxfile host="app.diagrams.net" modified="2024-06-07T20:52:13.416Z" agent="Mozilla/5.0 (Windows NT 10.0; Win64; x64) AppleWebKit/537.36 (KHTML, like Gecko) Chrome/125.0.0.0 Safari/537.36 Edg/125.0.0.0" etag="pmYNIx1rBM-zNu1iF2Zt" version="24.5.2" type="github">
  <diagram name="PÃ¡gina-1" id="fPTjqWrPIINJUJbd3dA4">
    <mxGraphModel dx="956" dy="547" grid="1" gridSize="10" guides="1" tooltips="1" connect="1" arrows="1" fold="1" page="1" pageScale="1" pageWidth="827" pageHeight="1169" math="0" shadow="0">
      <root>
        <mxCell id="0" />
        <mxCell id="1" parent="0" />
        <mxCell id="1bSEjNUApGwY84FzfD96-45" value="" style="rounded=0;whiteSpace=wrap;html=1;strokeWidth=1;fillWeight=4;hachureGap=8;hachureAngle=45;fillColor=#dae8fc;fillStyle=cross-hatch;glass=0;sketch=1;curveFitting=1;jiggle=2;shadow=0;strokeColor=#6c8ebf;" vertex="1" parent="1">
          <mxGeometry x="39" y="385" width="741" height="200" as="geometry" />
        </mxCell>
        <mxCell id="1bSEjNUApGwY84FzfD96-3" value="" style="edgeStyle=orthogonalEdgeStyle;rounded=0;orthogonalLoop=1;jettySize=auto;html=1;entryX=0;entryY=0.5;entryDx=0;entryDy=0;" edge="1" parent="1" source="1bSEjNUApGwY84FzfD96-1" target="1bSEjNUApGwY84FzfD96-8">
          <mxGeometry relative="1" as="geometry">
            <mxPoint x="504" y="110" as="targetPoint" />
          </mxGeometry>
        </mxCell>
        <mxCell id="1bSEjNUApGwY84FzfD96-7" value="&amp;nbsp;GNU Cross Toolchain&amp;nbsp;" style="edgeLabel;html=1;align=center;verticalAlign=middle;resizable=0;points=[];" vertex="1" connectable="0" parent="1bSEjNUApGwY84FzfD96-3">
          <mxGeometry x="-0.0786" relative="1" as="geometry">
            <mxPoint as="offset" />
          </mxGeometry>
        </mxCell>
        <mxCell id="1bSEjNUApGwY84FzfD96-5" style="edgeStyle=orthogonalEdgeStyle;rounded=0;orthogonalLoop=1;jettySize=auto;html=1;exitX=1;exitY=0.5;exitDx=0;exitDy=0;entryX=1;entryY=0.5;entryDx=0;entryDy=0;" edge="1" parent="1" source="1bSEjNUApGwY84FzfD96-1" target="1bSEjNUApGwY84FzfD96-4">
          <mxGeometry relative="1" as="geometry" />
        </mxCell>
        <mxCell id="1bSEjNUApGwY84FzfD96-1" value="Host&lt;div&gt;x64&lt;/div&gt;" style="whiteSpace=wrap;html=1;aspect=fixed;" vertex="1" parent="1">
          <mxGeometry x="64" y="30" width="160" height="160" as="geometry" />
        </mxCell>
        <mxCell id="1bSEjNUApGwY84FzfD96-2" value="Target&lt;br&gt;MCU STM32&lt;br&gt;&lt;div style=&quot;font-size: 10px;&quot;&gt;&lt;font style=&quot;font-size: 10px;&quot;&gt;ARM Cortex M3&lt;/font&gt;&lt;/div&gt;" style="whiteSpace=wrap;html=1;aspect=fixed;" vertex="1" parent="1">
          <mxGeometry x="650" y="70" width="80" height="80" as="geometry" />
        </mxCell>
        <mxCell id="1bSEjNUApGwY84FzfD96-4" value="C++&lt;br&gt;Code" style="whiteSpace=wrap;html=1;aspect=fixed;" vertex="1" parent="1">
          <mxGeometry x="184" y="90" width="40" height="40" as="geometry" />
        </mxCell>
        <mxCell id="1bSEjNUApGwY84FzfD96-6" style="edgeStyle=orthogonalEdgeStyle;rounded=0;orthogonalLoop=1;jettySize=auto;html=1;exitX=0.5;exitY=1;exitDx=0;exitDy=0;" edge="1" parent="1" source="1bSEjNUApGwY84FzfD96-1" target="1bSEjNUApGwY84FzfD96-1">
          <mxGeometry relative="1" as="geometry" />
        </mxCell>
        <mxCell id="1bSEjNUApGwY84FzfD96-9" style="edgeStyle=orthogonalEdgeStyle;rounded=0;orthogonalLoop=1;jettySize=auto;html=1;entryX=0;entryY=0.5;entryDx=0;entryDy=0;" edge="1" parent="1" source="1bSEjNUApGwY84FzfD96-8" target="1bSEjNUApGwY84FzfD96-2">
          <mxGeometry relative="1" as="geometry" />
        </mxCell>
        <mxCell id="1bSEjNUApGwY84FzfD96-8" value="Binaries&lt;br&gt;(Machine Code)" style="whiteSpace=wrap;html=1;aspect=fixed;" vertex="1" parent="1">
          <mxGeometry x="434" y="60" width="100" height="100" as="geometry" />
        </mxCell>
        <mxCell id="1bSEjNUApGwY84FzfD96-12" value="" style="edgeStyle=orthogonalEdgeStyle;rounded=0;orthogonalLoop=1;jettySize=auto;html=1;" edge="1" parent="1" source="1bSEjNUApGwY84FzfD96-10" target="1bSEjNUApGwY84FzfD96-11">
          <mxGeometry relative="1" as="geometry">
            <Array as="points">
              <mxPoint x="144" y="345" />
            </Array>
          </mxGeometry>
        </mxCell>
        <mxCell id="1bSEjNUApGwY84FzfD96-10" value="*.c" style="shape=ext;double=1;whiteSpace=wrap;html=1;aspect=fixed;" vertex="1" parent="1">
          <mxGeometry x="40" y="320" width="50" height="50" as="geometry" />
        </mxCell>
        <mxCell id="1bSEjNUApGwY84FzfD96-14" value="" style="edgeStyle=orthogonalEdgeStyle;rounded=0;orthogonalLoop=1;jettySize=auto;html=1;" edge="1" parent="1" source="1bSEjNUApGwY84FzfD96-11" target="1bSEjNUApGwY84FzfD96-13">
          <mxGeometry relative="1" as="geometry" />
        </mxCell>
        <mxCell id="1bSEjNUApGwY84FzfD96-24" style="edgeStyle=orthogonalEdgeStyle;rounded=0;orthogonalLoop=1;jettySize=auto;html=1;exitX=1;exitY=0.5;exitDx=0;exitDy=0;entryX=0;entryY=0.5;entryDx=0;entryDy=0;" edge="1" parent="1" source="1bSEjNUApGwY84FzfD96-11" target="1bSEjNUApGwY84FzfD96-23">
          <mxGeometry relative="1" as="geometry">
            <Array as="points">
              <mxPoint x="290" y="425" />
              <mxPoint x="290" y="335" />
            </Array>
          </mxGeometry>
        </mxCell>
        <mxCell id="1bSEjNUApGwY84FzfD96-19" value="" style="edgeStyle=orthogonalEdgeStyle;rounded=0;orthogonalLoop=1;jettySize=auto;html=1;" edge="1" parent="1" source="1bSEjNUApGwY84FzfD96-13" target="1bSEjNUApGwY84FzfD96-18">
          <mxGeometry relative="1" as="geometry" />
        </mxCell>
        <mxCell id="1bSEjNUApGwY84FzfD96-13" value="Parser" style="whiteSpace=wrap;html=1;" vertex="1" parent="1">
          <mxGeometry x="349.5" y="395" width="120" height="60" as="geometry" />
        </mxCell>
        <mxCell id="1bSEjNUApGwY84FzfD96-31" style="edgeStyle=orthogonalEdgeStyle;rounded=0;orthogonalLoop=1;jettySize=auto;html=1;entryX=0;entryY=0.5;entryDx=0;entryDy=0;" edge="1" parent="1" source="1bSEjNUApGwY84FzfD96-18" target="1bSEjNUApGwY84FzfD96-26">
          <mxGeometry relative="1" as="geometry">
            <mxPoint x="90" y="540" as="targetPoint" />
            <Array as="points">
              <mxPoint x="760" y="425" />
              <mxPoint x="760" y="480" />
              <mxPoint x="60" y="480" />
              <mxPoint x="60" y="540" />
            </Array>
          </mxGeometry>
        </mxCell>
        <mxCell id="1bSEjNUApGwY84FzfD96-18" value="Code Generator" style="whiteSpace=wrap;html=1;" vertex="1" parent="1">
          <mxGeometry x="610" y="395" width="120" height="60" as="geometry" />
        </mxCell>
        <mxCell id="1bSEjNUApGwY84FzfD96-23" value="*.i" style="shape=ext;double=1;whiteSpace=wrap;html=1;aspect=fixed;" vertex="1" parent="1">
          <mxGeometry x="384.5" y="310" width="50" height="50" as="geometry" />
        </mxCell>
        <mxCell id="1bSEjNUApGwY84FzfD96-25" value="" style="edgeStyle=orthogonalEdgeStyle;rounded=0;orthogonalLoop=1;jettySize=auto;html=1;entryX=0.383;entryY=0.005;entryDx=0;entryDy=0;entryPerimeter=0;" edge="1" parent="1" source="1bSEjNUApGwY84FzfD96-26" target="1bSEjNUApGwY84FzfD96-33">
          <mxGeometry relative="1" as="geometry">
            <mxPoint x="280" y="610" as="targetPoint" />
          </mxGeometry>
        </mxCell>
        <mxCell id="1bSEjNUApGwY84FzfD96-26" value="Assembler" style="whiteSpace=wrap;html=1;" vertex="1" parent="1">
          <mxGeometry x="135" y="510" width="120" height="60" as="geometry" />
        </mxCell>
        <mxCell id="1bSEjNUApGwY84FzfD96-28" value="Linker" style="whiteSpace=wrap;html=1;" vertex="1" parent="1">
          <mxGeometry x="320" y="510" width="120" height="60" as="geometry" />
        </mxCell>
        <mxCell id="1bSEjNUApGwY84FzfD96-41" value="" style="edgeStyle=orthogonalEdgeStyle;rounded=0;orthogonalLoop=1;jettySize=auto;html=1;" edge="1" parent="1" source="1bSEjNUApGwY84FzfD96-29" target="1bSEjNUApGwY84FzfD96-40">
          <mxGeometry relative="1" as="geometry" />
        </mxCell>
        <mxCell id="1bSEjNUApGwY84FzfD96-43" style="edgeStyle=orthogonalEdgeStyle;rounded=0;orthogonalLoop=1;jettySize=auto;html=1;exitX=1;exitY=0.5;exitDx=0;exitDy=0;entryX=0.5;entryY=0;entryDx=0;entryDy=0;" edge="1" parent="1" source="1bSEjNUApGwY84FzfD96-29" target="1bSEjNUApGwY84FzfD96-42">
          <mxGeometry relative="1" as="geometry" />
        </mxCell>
        <mxCell id="1bSEjNUApGwY84FzfD96-29" value="objcopy" style="whiteSpace=wrap;html=1;" vertex="1" parent="1">
          <mxGeometry x="540" y="510" width="120" height="60" as="geometry" />
        </mxCell>
        <mxCell id="1bSEjNUApGwY84FzfD96-34" style="edgeStyle=orthogonalEdgeStyle;rounded=0;orthogonalLoop=1;jettySize=auto;html=1;exitX=0.75;exitY=0;exitDx=0;exitDy=0;entryX=0;entryY=0.5;entryDx=0;entryDy=0;" edge="1" parent="1" source="1bSEjNUApGwY84FzfD96-33" target="1bSEjNUApGwY84FzfD96-28">
          <mxGeometry relative="1" as="geometry">
            <Array as="points">
              <mxPoint x="298" y="590" />
              <mxPoint x="298" y="540" />
            </Array>
          </mxGeometry>
        </mxCell>
        <mxCell id="1bSEjNUApGwY84FzfD96-33" value="*.o" style="shape=ext;double=1;whiteSpace=wrap;html=1;aspect=fixed;" vertex="1" parent="1">
          <mxGeometry x="260" y="630" width="50" height="50" as="geometry" />
        </mxCell>
        <mxCell id="1bSEjNUApGwY84FzfD96-36" value="" style="edgeStyle=orthogonalEdgeStyle;rounded=0;orthogonalLoop=1;jettySize=auto;html=1;" edge="1" parent="1" source="1bSEjNUApGwY84FzfD96-35" target="1bSEjNUApGwY84FzfD96-28">
          <mxGeometry relative="1" as="geometry" />
        </mxCell>
        <mxCell id="1bSEjNUApGwY84FzfD96-35" value="*.a" style="shape=ext;double=1;whiteSpace=wrap;html=1;aspect=fixed;" vertex="1" parent="1">
          <mxGeometry x="355" y="630" width="50" height="50" as="geometry" />
        </mxCell>
        <mxCell id="1bSEjNUApGwY84FzfD96-37" value="" style="edgeStyle=orthogonalEdgeStyle;rounded=0;orthogonalLoop=1;jettySize=auto;html=1;entryX=0.38;entryY=-0.05;entryDx=0;entryDy=0;entryPerimeter=0;" edge="1" parent="1" target="1bSEjNUApGwY84FzfD96-39">
          <mxGeometry relative="1" as="geometry">
            <mxPoint x="440" y="540" as="sourcePoint" />
            <mxPoint x="465" y="610" as="targetPoint" />
          </mxGeometry>
        </mxCell>
        <mxCell id="1bSEjNUApGwY84FzfD96-38" style="edgeStyle=orthogonalEdgeStyle;rounded=0;orthogonalLoop=1;jettySize=auto;html=1;exitX=0.75;exitY=0;exitDx=0;exitDy=0;entryX=0;entryY=0.5;entryDx=0;entryDy=0;" edge="1" parent="1" source="1bSEjNUApGwY84FzfD96-39" target="1bSEjNUApGwY84FzfD96-29">
          <mxGeometry relative="1" as="geometry">
            <mxPoint x="505" y="540" as="targetPoint" />
            <Array as="points">
              <mxPoint x="482" y="590" />
              <mxPoint x="483" y="540" />
            </Array>
          </mxGeometry>
        </mxCell>
        <mxCell id="1bSEjNUApGwY84FzfD96-39" value="*.elf" style="shape=ext;double=1;whiteSpace=wrap;html=1;aspect=fixed;" vertex="1" parent="1">
          <mxGeometry x="445" y="630" width="50" height="50" as="geometry" />
        </mxCell>
        <mxCell id="1bSEjNUApGwY84FzfD96-40" value="*.bin" style="shape=ext;double=1;whiteSpace=wrap;html=1;aspect=fixed;" vertex="1" parent="1">
          <mxGeometry x="650" y="630" width="50" height="50" as="geometry" />
        </mxCell>
        <mxCell id="1bSEjNUApGwY84FzfD96-42" value="*.ihex" style="shape=ext;double=1;whiteSpace=wrap;html=1;aspect=fixed;" vertex="1" parent="1">
          <mxGeometry x="720" y="630" width="50" height="50" as="geometry" />
        </mxCell>
        <mxCell id="1bSEjNUApGwY84FzfD96-11" value="Preprocessor" style="whiteSpace=wrap;html=1;" vertex="1" parent="1">
          <mxGeometry x="84" y="395" width="120" height="60" as="geometry" />
        </mxCell>
      </root>
    </mxGraphModel>
  </diagram>
</mxfile>
